<?xml version="1.0" standalone="yes"?>
<svg xmlns="http://www.w3.org/2000/svg" width="200" height="300">
<path style="fill:#dddddd; stroke:none;" d="M0 0L0 300L200 300L200 0L0 0z"/>
<path style="fill:#b2b2b2; stroke:none;" d="M139 81C136.814 85.6189 135.323 91.9593 131.606 95.5818C127.794 99.298 120.869 101.002 116 103C118.832 98.0233 121.415 92.5049 123 87C118.21 88.3694 110.299 90.2262 106.649 93.7022C102.824 97.3449 102.508 103.657 99.1852 107.722C95.9809 111.643 88.6645 113.412 84 115L90 100C85.0419 101.147 78.4009 102.524 74.3904 105.818C69.2031 110.079 65.8119 120.708 64 127C70.3323 126.352 76.0606 123.015 82 120.861C95.3981 116.002 108.557 110.468 122 105.735C127.857 103.672 139.322 101.397 143.381 96.5008C146.722 92.4711 141.948 84.0481 139 81M50.3179 128.043C45.7698 130.928 49.8038 138.746 54.8549 135.953C60.4577 132.855 55.566 124.715 50.3179 128.043M66 132C70.1066 137.83 75.8934 142.17 80 148L44 148L44 189C44 194.049 42.6527 201.483 45.8935 205.772C50.1814 211.446 62.7284 209 69 209L129 209C135.256 209 146.745 211.266 151.106 205.656C154.231 201.637 153 194.765 153 190L153 151C153 146.497 154.571 138.213 151.972 134.318C149.368 130.416 141.042 132 137 132C139.966 138.359 146.084 143.084 151 148C146.158 148 139.437 149.191 135 146.972C128.37 143.657 125.046 135.201 118 132.603C113.1 130.797 106.172 132 101 132C105.193 137.952 110.859 142.859 116 148C111.158 148 104.437 149.191 100 146.972C93.3699 143.657 90.0461 135.201 83 132.603C78.1005 130.797 71.1718 132 66 132z"/>
<path style="fill:#dddddd; stroke:none;" d="M72 166L72 170L125 170L125 166L72 166M72 185L72 189L125 189L125 185L72 185z"/>
</svg>
